<?xml version="1.0" encoding="utf-8"?>
<!-- Generator: Adobe Illustrator 16.0.0, SVG Export Plug-In . SVG Version: 6.00 Build 0)  -->
<!DOCTYPE svg PUBLIC "-//W3C//DTD SVG 1.1//EN" "http://www.w3.org/Graphics/SVG/1.1/DTD/svg11.dtd">
<svg version="1.1" id="Layer_1" xmlns="http://www.w3.org/2000/svg" xmlns:xlink="http://www.w3.org/1999/xlink" x="0px" y="0px"
	 width="1047.869px" height="319.96px" viewBox="0 0 1047.869 319.96" enable-background="new 0 0 1047.869 319.96"
	 xml:space="preserve">
<g>
	<path fill-rule="evenodd" clip-rule="evenodd" fill="#65CF7E" d="M133.259,130.231c2.296-18.775,4.583-37.552,6.891-56.325
		c2.085-16.964,4.262-33.917,6.212-50.896c0.292-2.548,1.131-3.806,3.564-4.583c9.012-2.874,18.015-5.792,26.907-9.012
		c3.268-1.184,4.078,0.089,4.407,2.845c1.712,14.334,3.396,28.673,5.179,42.999c2.151,17.287,4.41,34.561,6.59,51.844
		c2.14,16.957,4.232,33.92,6.358,50.88c2.229,17.777,4.62,35.537,6.659,53.337c1.453,12.694,3.25,25.297,6.128,37.765
		c4.813,20.85,17.186,33.992,38.256,38.639c0.647,0.143,1.283,0.363,1.899,0.612c0.272,0.109,0.479,0.378,1.149,0.935
		c-12.343,7.483-25.279,9.438-38.786,5.325c-19.102-5.818-29.9-19.139-34.284-38.518c-4.738-20.942-6.191-42.291-8.982-63.475
		c-2.19-16.616-4.11-33.268-6.15-49.904c-0.559-1.004-1.117-1.004-1.675,0c-2.256,18.619-4.499,37.242-6.771,55.859
		c-1.79,14.662-3.808,29.302-5.312,43.992c-0.466,4.547-1.81,6.235-6.587,6.018c-8.811-0.402-17.657-0.25-26.481-0.043
		c-3.109,0.073-4.505-0.887-4.873-3.987c-2.672-22.582-5.429-45.153-8.161-67.728c-1.375-11.371-2.755-22.741-4.133-34.111
		c-0.559-1.004-1.117-1.004-1.676,0c-2.255,18.618-4.487,37.24-6.772,55.855c-2.104,17.131-3.923,34.307-6.511,51.365
		c-2.081,13.721-3.842,27.66-13.234,39.066c-14.152,17.188-38.932,22.611-58.769,12.53c-1.271-0.646-2.881-0.96-3.578-2.734
		c4.273-1.345,8.666-2.289,12.689-4.069c16.967-7.504,25.722-21.123,29.097-39.002c4.162-22.044,6.154-44.358,9.014-66.564
		c3.265-25.346,6.592-50.684,9.761-76.042c3.169-25.36,6.17-50.741,9.256-76.112c1.002-8.237,2.05-16.47,3.06-24.707
		c0.333-2.716,1.073-4.08,4.387-2.877c8.891,3.225,17.898,6.139,26.911,9.015c2.426,0.773,3.271,2.015,3.583,4.568
		c3.142,25.695,6.5,51.363,9.705,77.051c1.253,10.048,2.272,20.125,3.397,30.188C132.142,131.235,132.701,131.235,133.259,130.231z"
		/>
	<path fill-rule="evenodd" clip-rule="evenodd" d="M564.758,268.131c-15.296,7-36.11,2.897-49.301-9.912
		c-2.825-2.743-4.595-2.704-7.87-0.881c-31.668,17.632-70.694-4.895-71.137-41.095c-0.271-22.147,0.002-44.301-0.132-66.449
		c-0.018-2.825,0.798-4.036,3.502-4.877c9.47-2.948,18.848-6.187,28.567-9.417c0,26.604-0.047,52.746,0.022,78.887
		c0.029,11.03,8.662,18.673,18.758,16.845c8.005-1.449,13.181-7.971,13.199-16.934c0.049-24.315,0.018-48.63,0.018-72.945
		c0-1.804,0-3.608,0-5.855c10.27,3.412,20.138,6.764,30.062,9.943c2.954,0.946,1.883,3.19,1.889,4.941
		c0.069,22.649,0.304,45.303-0.024,67.948C531.963,242.223,542.669,258.592,564.758,268.131z"/>
	<path fill-rule="evenodd" clip-rule="evenodd" d="M903.291,85.341c2.222-4.955,4.785-9.709,8.44-13.776
		c10.007-11.13,19.399-11.981,32.726-6.164c0.591,0.258,1.095,0.708,1.651,1.049c6.128,3.742,12.657,6.465,19.387,9.057
		c11.554,4.449,21.189,12.314,30.593,20.265c2.843,2.403,5.742,4.718,8.316,7.5c8.807,9.521,6.848,19.667,2.352,30.098
		c-1.17,2.714-2.425,5.391-3.641,8.084c-0.989,2.151-2.856,1.591-4.304,1.044c-20.357-7.697-40.733-3.763-61.075-0.101
		c-10.645,1.916-21.158,4.547-31.925,5.8c-1.486,0.173-2.959,0.507-4.461,0.231c-7.592-3.569-14.128-8.627-19.865-14.676
		c-4.198-4.426-4.223-7.371-0.029-11.568c3.897-3.901,6.143-8.59,7.719-13.717C891.913,99.555,897.373,92.31,903.291,85.341z"/>
	<path fill-rule="evenodd" clip-rule="evenodd" d="M604.019,105.8c18.821-8.791,44.416-0.239,56.661,18.603
		c6.456,9.935,8.077,20.906,7.744,32.48c-0.275,9.574-0.057,9.58,9.361,9.58c4.83,0,9.662,0.091,14.489-0.042
		c2.098-0.058,2.659,0.555,1.993,2.533c-3.072,9.119-6.104,18.252-9.14,27.384c-0.456,1.372-1.122,2.39-2.813,2.133
		c-0.488-0.074-0.998-0.02-1.498-0.01c-3.969,0.082-9.271-1.356-11.564,0.647c-2.706,2.364-0.593,7.804-0.862,11.898
		c-0.12,1.823-0.093,3.67,0.039,5.493c0.556,7.687,6.342,13.844,13.854,14.831c7.326,0.963,14.628-3.138,16.912-10.327
		c1.146-3.602,2.529-3.602,5.49-2.533c7.334,2.645,14.718,5.181,22.188,7.405c3.345,0.996,4.016,2.18,2.813,5.575
		c-7.126,20.137-26.903,33.232-48.65,31.916c-21.003-1.271-39.355-17.206-43.606-37.858c-0.775-3.767-1.084-7.563-1.076-11.413
		c0.038-19.486-0.241-38.977,0.084-58.458C636.835,131.749,626.122,115.362,604.019,105.8z"/>
	<path fill-rule="evenodd" clip-rule="evenodd" d="M604.733,184.363c-0.375-1.56-0.649-3.021-1.08-4.436
		c-2.313-7.585-9.523-12.309-17.257-11.348c-7.521,0.934-13.673,7.057-13.888,14.736c-0.315,11.315-0.29,22.65-0.027,33.968
		c0.184,7.938,6.363,14.205,14.092,15.071c7.767,0.871,14.853-3.883,17.133-11.533c0.378-1.266,0.6-2.575,0.978-4.236
		c9.444,3.144,18.78,6.354,28.189,9.333c3.625,1.147,1.729,3.368,1.201,5.086c-6.119,19.899-24.974,33.55-46.031,33.444
		c-20.955-0.104-39.565-13.994-45.594-34.07c-1.298-4.321-2.071-8.74-2.065-13.276c0.014-11.158-0.123-22.318,0.033-33.474
		c0.336-23.668,17.436-42.906,41.346-46.713c22.229-3.539,44.684,10.411,52.152,32.202c1.23,3.591,1.288,5.402-3.104,6.63
		C622.05,178.196,613.504,181.416,604.733,184.363z"/>
	<path fill-rule="evenodd" clip-rule="evenodd" fill="#65CF7E" d="M228.412,263.415c0-3.068,0-5.55,0-8.031
		c0-34.127,0.152-68.254-0.153-102.379c-0.049-5.529,1.674-7.85,6.832-9.197c7.058-1.843,13.748-5.519,20.872-6.613
		c20.604-3.167,40.808-3.354,56.242,14.352c0.438,0.502,0.882,0.998,1.315,1.503c3.51,4.096,7.965,9.113,7.448,13.692
		c-0.575,5.092-8.22,3.771-12.473,5.961c-2.192,1.13-4.732,1.561-7.032,2.511c-5.449,2.25-9.854,3.783-14.238-3.021
		c-3.573-5.546-10.54-6.07-16.802-3.496c-6.667,2.74-9.985,8.052-9.998,15.277c-0.034,19.478-0.015,38.954-0.017,58.432
		c0,10.452,0.005,10.467-9.891,13.753C243.312,258.549,236.091,260.895,228.412,263.415z"/>
	<path fill-rule="evenodd" clip-rule="evenodd" fill="#262626" d="M900.372,147.412c13.996-1.256,27.597-4.777,41.383-7.23
		c19.602-3.487,39.206-6.422,58.538,1.395c1.015,0.411,1.902,0.421,2.822-0.121c5.177,4.565,11.89,6.887,16.865,11.807
		c8.949,8.849,16.488,18.619,20.156,30.819c0.819,2.724,0.568,5.972,0.056,8.844c-0.694,3.887-3.567,5.854-7.51,5.507
		c-9.162-0.811-17.935-3.698-26.946-5.307c-7.098-1.267-13.583-4.258-20.323-6.535c-11.62-4.308-23.139-8.91-35.199-11.911
		c-6.024-2.795-12.523-3.909-18.927-5.366c-6.699,0.599-12.604-2.384-18.73-4.262c-6.182-1.894-12.138-4.47-18.309-6.422
		c-1.936-0.612-3.615-1.638-4.992-3.142c-11.603-4.308-23.964-6.867-34.004-14.77c0.512-3.092,2.587-1.697,4.026-1.214
		c2.508,0.843,4.945,1.897,7.46,2.747c7.76,2.621,15.666,4.177,23.914,3.796C893.946,145.895,897.305,145.741,900.372,147.412z"/>
	<path fill-rule="evenodd" clip-rule="evenodd" d="M950.214,174.679c0.373-0.3,0.829-0.925,1.111-0.854
		c11.431,2.858,22.588,6.523,33.263,11.555c0.381,0.18,0.555,0.798,0.825,1.211c-0.023,26.797-0.644,53.611,0.138,80.386
		c0.536,18.372,10.202,31.945,26.587,40.505c1.76,0.919,3.618,1.646,6.021,2.729c-9.756,3.895-19.184,4.152-28.721,1.716
		c-21.164-5.408-35.928-24.118-36.058-46.007c-0.157-26.299-0.091-52.598,0.007-78.896
		C953.403,182.552,952.603,178.453,950.214,174.679z"/>
	<path fill-rule="evenodd" clip-rule="evenodd" d="M799.042,272.264c-9.614,3.848-19.037,4.1-28.567,1.669
		c-21.16-5.397-35.925-24.108-36.072-45.982c-0.159-23.629,0.019-47.262-0.116-70.891c-0.017-2.878,0.913-3.979,3.575-4.797
		c8.239-2.529,16.449-5.197,24.527-8.193c3.62-1.342,4.044-0.293,4.029,3.044c-0.111,24.795,0.286,49.597-0.159,74.384
		C765.823,245.749,776.314,262.506,799.042,272.264z"/>
	<path fill-rule="evenodd" clip-rule="evenodd" d="M889.256,155.487c13.977,4.708,27.693,10.214,42.031,13.826
		c-7.62,4.081-10.274,10.509-10.048,19.007c0.371,13.984,0.362,27.994,0.014,41.98c-0.757,30.463-30.799,52.589-60.15,44.526
		c-1.404-0.387-3-0.423-4.039-1.865c17.679-7.015,28.458-19.735,31.816-38.545c0.232-1.305,0.433-2.639,0.433-3.959
		C889.313,205.467,889.28,180.477,889.256,155.487z"/>
	<path fill-rule="evenodd" clip-rule="evenodd" fill="#121212" d="M900.372,147.412c-14.763,0.824-29.189-0.331-42.636-7.242
		c-1.017-0.522-1.875-0.633-2.484,0.547c-10.246-7.62-17.94-16.938-19.981-30.019c-1.013-3.006,0.113-6.168-0.663-9.191
		c5.045-17.724,18.662-25.481,34.991-30.051c12.531-3.507,21.934,1.226,29.501,11.104c0.941,1.23,1.777,3.428,4.191,2.781
		c-1.164,3.149-2.888,6.014-4.991,8.577c-3.755,4.571-6.318,9.694-8.043,15.318c-1.621,5.282-3.666,10.383-8.174,13.974
		c-3.861,3.076-3.107,6.132-0.189,9.31c4.525,4.926,9.91,8.782,15.458,12.426C898.455,145.671,899.782,146.073,900.372,147.412z"/>
	<path fill-rule="evenodd" clip-rule="evenodd" d="M774.346,112.337c0.062,13.362-10.743,24.173-24.104,24.118
		c-13.145-0.056-23.807-10.712-23.869-23.854c-0.063-13.362,10.743-24.173,24.104-24.118
		C763.621,88.539,774.283,99.195,774.346,112.337z"/>
	<path fill-rule="evenodd" clip-rule="evenodd" fill="#090909" d="M834.607,101.507c1.505,2.971,0.454,6.127,0.663,9.191
		C833.45,107.75,834.507,104.593,834.607,101.507z"/>
	<path fill-rule="evenodd" clip-rule="evenodd" fill="#8DDB9F" d="M133.259,130.231c-0.006,0.988,0.679,2.597-0.837,2.598
		c-1.518,0-0.832-1.608-0.839-2.597C132.142,130.231,132.701,130.231,133.259,130.231z"/>
	<path fill-rule="evenodd" clip-rule="evenodd" fill="#8DDB9F" d="M99.586,142.701c0.006-0.988-0.679-2.597,0.837-2.598
		c1.518,0,0.832,1.608,0.839,2.597C100.704,142.701,100.145,142.701,99.586,142.701z"/>
	<path fill-rule="evenodd" clip-rule="evenodd" fill="#8DDB9F" d="M163.581,142.701c0.006-0.988-0.68-2.597,0.837-2.598
		c1.518,0,0.832,1.608,0.839,2.597C164.697,142.701,164.139,142.701,163.581,142.701z"/>
	<path fill-rule="evenodd" clip-rule="evenodd" d="M433.998,251.5c-10.876-58.006-21.765-116.01-32.638-174.017
		c-4.074-21.733-8.159-43.463-12.13-65.215c-0.541-2.961-1.722-3.981-4.834-3.875c-7.653,0.262-15.349,0.475-22.974-0.06
		c-4.574-0.32-5.386,1.674-6.078,5.401c-9.395,50.674-18.917,101.324-28.414,151.979c-6.123,32.656-12.254,65.311-18.52,98.702
		c10.706-3.537,20.75-6.991,30.895-10.123c2.979-0.921,3.61-2.831,4.076-5.407c2.694-14.887,5.533-29.747,8.183-44.641
		c0.528-2.969,1.735-3.938,4.837-3.871c10.489,0.225,20.994,0.323,31.476-0.034c4-0.137,4.925,1.426,5.524,4.875
		c2.585,14.904,5.412,29.769,8.213,44.634c0.288,1.527,0.335,3.16,2.484,3.852c10.62,3.421,21.18,7.027,32.231,10.727
		C435.466,259.634,434.759,255.562,433.998,251.5z M384.025,168.497c-8.468-0.084-16.936-0.034-25.627-0.034
		c4.54-24.185,9-47.946,13.459-71.708c0.365,0.014,0.729,0.027,1.093,0.041c4.318,23.013,8.612,46.033,13.001,69.032
		C386.314,167.729,386.221,168.518,384.025,168.497z"/>
	<path fill-rule="evenodd" clip-rule="evenodd" d="M878.33,203.323c0-7.453,0.104-13.284-0.019-19.109
		c-0.542-25.804-21.857-46.649-47.723-46.742c-26.146-0.094-47.712,20.75-48.181,46.768c-0.208,11.485-0.205,22.981,0,34.466
		c0.433,24.234,19.557,44.521,43.712,46.607c24.694,2.133,46.958-14.876,51.414-39.194
		C879.021,218.003,877.956,209.832,878.33,203.323z M846.3,217.456c-0.147,9.128-7.045,15.919-15.824,15.983
		c-8.987,0.067-15.883-6.821-16.095-16.234c-0.12-5.33-0.022-10.663-0.022-15.996c0-5.164-0.097-10.332,0.021-15.494
		c0.216-9.413,7.11-16.301,16.098-16.233c8.778,0.065,15.675,6.856,15.823,15.984C846.473,196.126,846.473,206.794,846.3,217.456z"
		/>
</g>
</svg>
