<?xml version="1.0" standalone="no"?>
<!DOCTYPE svg PUBLIC "-//W3C//DTD SVG 20010904//EN"
 "http://www.w3.org/TR/2001/REC-SVG-20010904/DTD/svg10.dtd">
<svg version="1.0" xmlns="http://www.w3.org/2000/svg"
 width="288.000000pt" height="288.000000pt" viewBox="0 0 288.000000 288.000000"
 preserveAspectRatio="xMidYMid meet">
<metadata>
Created by potrace 1.14, written by Peter Selinger 2001-2017
</metadata>
<g transform="translate(0.000000,288.000000) scale(0.100000,-0.100000)"
fill="#000000" stroke="none">
<path d="M1283 2674 c-47 -24 -118 -98 -155 -163 -40 -72 -37 -69 -54 -46 -71
98 -157 147 -249 140 -198 -15 -389 -166 -412 -327 -6 -45 25 -154 60 -211 35
-58 141 -161 198 -191 27 -15 103 -47 167 -70 l117 -43 2 -394 c2 -437 0 -458
-63 -569 -51 -89 -143 -171 -227 -201 -29 -10 -34 -15 -22 -22 62 -34 264 -31
329 6 12 6 23 11 26 12 3 0 25 12 50 27 101 59 193 189 219 307 6 31 11 159
11 312 0 288 3 304 63 355 35 30 68 29 167 -3 93 -30 90 -12 90 -537 0 -532 0
-530 93 -680 36 -59 134 -132 222 -166 48 -19 80 -24 160 -24 112 -1 220 26
153 38 -24 4 -99 47 -130 74 -58 51 -88 87 -117 142 -59 112 -60 122 -61 585
0 234 3 425 8 425 5 0 36 -11 69 -25 34 -13 76 -27 95 -30 18 -3 62 -12 98
-20 159 -37 187 -42 215 -38 47 6 60 26 60 92 0 122 -126 307 -280 410 -40 27
-79 51 -85 53 -9 3 -6 17 10 47 34 68 51 121 57 183 5 49 2 63 -20 101 -71
121 -400 357 -498 357 -7 0 -35 15 -63 34 -107 70 -232 95 -303 60z"/>
</g>
</svg>
